<svg xmlns:rdf="http://www.w3.org/1999/02/22-rdf-syntax-ns#" xmlns="http://www.w3.org/2000/svg" version="1.1" xmlns:cc="http://creativecommons.org/ns#" xmlns:dc="http://purl.org/dc/elements/1.1/" viewBox="0 0 918.88 351.3">
 <g transform="translate(86.057 -725.14)">
  <g fill="#ff2a2a">
   <path style="color:#000000;text-indent:0;block-progression:tb;text-decoration-line:none;text-transform:none" d="m236.88 878.37-10.555 7.3754-1.6369 16.425 4.6473 8.2221 19.85 5.5128 6.7734-15.259c1.2408-2.807 0.38264-6.3936-1.9944-8.335l-17.084-13.942z"/>
   <path style="color:#000000;text-indent:0;block-progression:tb;text-decoration-line:none;text-transform:none" d="m240.21 846.01c-0.98948-0.0481-2.0321 0.21869-2.8787 0.73378-0.005 0.003-0.0141-0.003-0.0188 0l-37.517 23.086c-1.073 0.66115-1.901 1.8099-2.2202 3.0292l-12.869 49.163a2.0202 2.0202 0 0 1 -0.43273 0.82786l-19.078 21.524c-0.70826 0.80101-1.1559 1.8694-1.2418 2.9351-0.0821 1.0189 0.17515 2.0898 0.69616 2.9728l21.016 23.556a2.0202 2.0202 0 0 1 0.20696 0.26341c0.81247 1.2868 2.34 2.2125 3.857 2.333 1.5171 0.12042 3.1903-0.55089 4.1957-1.6933a2.0202 2.0202 0 0 1 0.1317 -0.11289l18.363-17.592a2.0202 2.0202 0 0 1 0.84667 -0.48919l42.051-11.91c0.006-0.002 0.0133 0.002 0.0187 0 0.35703-0.10402 0.70942-0.25301 1.0348-0.43274l35.071-19.191c1.1869-0.65116 2.1329-1.8673 2.4648-3.1797 0.33185-1.3125 0.0951-2.8517-0.63971-3.9888l-6.55-10.13c-0.66937-1.0336-1.7802-1.8382-2.9728-2.1449-1.1925-0.30667-2.5651-0.13091-3.6501 0.45156l-27.093 14.544a2.0202 2.0202 0 0 1 -1.4864 0.16934l-24.045-6.6793a2.0202 2.0202 0 0 1 -1.223 -0.94075l-5.3811-9.558a2.0202 2.0202 0 0 1 -0.24459 -1.1853l1.7874-17.968a2.0202 2.0202 0 0 1 0.86549 -1.4488l16.858-11.778a2.0202 2.0202 0 0 1 1.317 -0.35748l42.164 3.4431c1.1419 0.0924 2.3538-0.24673 3.2926-0.90312 0.93888-0.65644 1.6703-1.6805 1.9756-2.7846l3.5748-13.001c0.37655-1.3714 0.10311-3.0006-0.69615-4.1769-0.79603-1.1716-2.2045-2.0224-3.6125-2.1825h-0.0188l-47.564-5.2117v0.0188c-0.10036-0.009-0.19677-0.0158-0.30104-0.0188a2.0202 2.0202 0 0 1 -0.0376 0z"/>
   <path style="" d="m333.79 956.66q-2.5762 0-4.3389-1.8983-1.7627-1.7627-1.7627-4.3389v-89.354q0-2.5762 1.7627-4.3389t4.3389-1.7627 4.3389 1.7627q1.8983 1.7627 1.8983 4.3389v3.5253q9.898-10.305 23.186-10.305 8.4066 0 15.864 4.3389 7.593 4.2033 12.203 12.474 4.7456 8.1354 4.7456 19.118t-4.7456 19.254q-4.61 8.1354-12.203 12.474-7.4574 4.2033-15.864 4.2033-13.288 0-23.186-10.305v34.575q0 2.7118-1.7627 4.4745t-4.4745 1.7627zm27.66-42.033q10.034 0 16.135-6.3727 6.1015-6.3727 6.1015-18.033 0-11.661-6.1015-18.033-6.1015-6.3727-16.135-6.3727-6.2371 0-11.796 2.8474-5.4236 2.7118-9.6269 7.3218v28.474q4.2033 4.61 9.6269 7.4574 5.5592 2.7118 11.796 2.7118z"/>
   <path style="" d="m419.05 841.55q-2.8474 0-4.8812-2.0338t-2.0338-4.8812v-0.54236q0-2.8474 2.0338-4.8812t4.8812-2.0338h0.81354q2.8474 0 4.8812 2.0338t2.0338 4.8812v0.54236q0 2.8474-2.0338 4.8812t-4.8812 2.0338h-0.81354zm0.27118 83.93q-2.5762 0-4.3389-1.7627t-1.7627-4.3389v-58.168q0-2.5762 1.7627-4.3389 1.7627-1.8982 4.3389-1.8982 2.7118 0 4.4745 1.7627t1.7627 4.4745v58.168q0 2.5762-1.8983 4.3389-1.7627 1.7627-4.3389 1.7627z"/>
   <path style="" d="m452.96 925.48q-2.5762 0-4.3389-1.7627t-1.7627-4.3389v-87.998q0-2.5762 1.7627-4.3389 1.7627-1.8982 4.3389-1.8982t4.3389 1.8982q1.8983 1.7627 1.8983 4.3389v55.456l32.27-29.83q2.0338-1.7627 4.0677-1.7627 3.1186 0 4.4745 1.7627 1.4915 1.7627 1.4915 4.2033 0 2.305-2.305 4.6101l-19.525 17.491 24.542 32.542q1.3559 1.7627 1.3559 3.6609 0 2.7118-1.7627 4.3389t-4.4745 1.6271q-1.3559 0-2.7118-0.67794-1.3559-0.67795-2.305-1.8983l-23.321-31.728-11.796 10.712v17.491q0 2.5762-1.8983 4.3389-1.7627 1.7627-4.3389 1.7627z"/>
   <path style="" d="m544.33 926.16q-7.4574 0-13.017-3.5253-5.4236-3.5253-8.4066-9.6269-2.8474-6.1015-2.8474-13.423v-38.508q0-2.5762 1.7627-4.3389 1.8983-1.7627 4.4745-1.7627t4.3389 1.7627 1.7627 4.3389v37.152q0 16.542 14.915 16.542 6.7795 0 12.067-3.5253 5.4236-3.5253 10.169-9.4913v-40.677q0-2.5762 1.7627-4.3389 1.8982-1.7627 4.4745-1.7627 2.5762 0 4.3389 1.7627t1.7627 4.3389v58.168q0 2.5762-1.7627 4.4745-1.7627 1.7627-4.3389 1.7627t-4.4745-1.7627q-1.7627-1.8983-1.7627-4.4745v-5.5592q-5.1524 5.6948-11.118 9.0845-5.966 3.3897-14.101 3.3897z"/>
  </g>
  <text style="word-spacing:0px;letter-spacing:0px" xml:space="preserve" font-size="40px" y="605.91644" x="-74.99691" font-family="Varela Round" line-height="125%" fill="#000000"><tspan x="-74.99691" y="605.91644">typeface: Varela Round</tspan><tspan x="-74.99691" y="655.91644">color: #ff2a2a </tspan></text>
 </g>
</svg>
