<?xml version="1.0" encoding="UTF-8" standalone="no"?>
<!DOCTYPE svg PUBLIC "-//W3C//DTD SVG 1.1//EN" "http://www.w3.org/Graphics/SVG/1.1/DTD/svg11.dtd">
<svg width="100%" height="100%" viewBox="0 0 131 131" version="1.1" xmlns="http://www.w3.org/2000/svg" xmlns:xlink="http://www.w3.org/1999/xlink" xml:space="preserve" xmlns:serif="http://www.serif.com/" style="fill-rule:evenodd;clip-rule:evenodd;stroke-linejoin:round;stroke-miterlimit:2;">
    <g>
        <path d="M72.941,32.367L62.386,39.743L60.749,56.168L65.397,64.39L85.246,69.903L92.02,54.644C93.261,51.837 92.402,48.25 90.025,46.309L72.941,32.367Z" style="fill:white;fill-rule:nonzero;"/>
        <path d="M76.272,0.006C75.282,-0.043 74.24,0.224 73.393,0.739C73.388,0.742 73.379,0.736 73.374,0.739L35.857,23.825C34.784,24.486 33.956,25.635 33.637,26.854L20.768,76.018C20.69,76.324 20.542,76.607 20.335,76.846L1.257,98.37C0.549,99.171 0.101,100.239 0.015,101.305C-0.067,102.324 0.19,103.395 0.711,104.278L21.727,127.834C21.804,127.916 21.873,128.004 21.934,128.097C22.747,129.384 24.274,130.31 25.791,130.43C27.309,130.551 28.982,129.879 29.987,128.737C30.029,128.697 30.073,128.66 30.119,128.624L48.482,111.032C48.72,110.802 49.011,110.634 49.329,110.543L91.38,98.633C91.386,98.631 91.393,98.635 91.399,98.633C91.756,98.529 92.108,98.38 92.434,98.2L127.505,79.009C128.691,78.358 129.637,77.142 129.969,75.83C130.301,74.517 130.064,72.978 129.33,71.841L122.763,61.718C122.094,60.685 120.983,59.88 119.79,59.573C118.598,59.267 117.225,59.443 116.14,60.025L89.047,74.569C88.592,74.813 88.059,74.874 87.561,74.738L63.515,68.059C62.999,67.92 62.559,67.581 62.292,67.118L56.911,57.56C56.71,57.199 56.625,56.786 56.667,56.375L58.454,38.407C58.517,37.821 58.834,37.291 59.319,36.958L76.178,25.18C76.562,24.912 77.028,24.785 77.495,24.822L119.659,28.265C120.801,28.358 122.013,28.019 122.951,27.362C123.89,26.706 124.622,25.682 124.927,24.578L128.502,11.577C128.878,10.205 128.605,8.576 127.806,7.4C127.01,6.228 125.601,5.377 124.193,5.217L124.174,5.217L76.61,0.006L76.61,0.024C76.51,0.015 76.414,0.009 76.309,0.006C76.297,0.006 76.284,0.006 76.272,0.006L76.272,0.006Z" style="fill:white;fill-rule:nonzero;"/>
    </g>
</svg>
